<?xml version="1.0" standalone="no"?>
<!DOCTYPE svg PUBLIC "-//W3C//DTD SVG 20010904//EN"
 "http://www.w3.org/TR/2001/REC-SVG-20010904/DTD/svg10.dtd">
<svg version="1.0" xmlns="http://www.w3.org/2000/svg"
 width="506.000000pt" height="506.000000pt" viewBox="0 0 506.000000 506.000000"
 preserveAspectRatio="xMidYMid meet">
<metadata>
Created by potrace 1.14, written by Peter Selinger 2001-2017
</metadata>
<g transform="translate(0.000000,506.000000) scale(0.100000,-0.100000)"
fill="#000000" stroke="none">
<path d="M2137 4899 c-18 -11 -19 -43 -1 -224 11 -118 11 -135 2 -135 -6 0
-40 22 -77 48 -75 55 -166 110 -260 158 -58 30 -66 31 -76 17 -12 -15 9 -61
102 -223 35 -61 126 -195 135 -198 4 -2 8 -8 8 -14 0 -6 14 -26 30 -45 22 -25
30 -45 32 -76 5 -153 -9 -217 -57 -263 -27 -25 -45 -33 -96 -38 -84 -10 -273
-59 -351 -92 -74 -31 -171 -77 -178 -84 -3 -3 -21 -14 -40 -24 -63 -35 -147
-100 -234 -181 -154 -144 -329 -452 -420 -740 -24 -75 -63 -229 -72 -285 -14
-83 -6 -77 -98 -77 -88 0 -120 -10 -107 -32 6 -8 35 -14 87 -16 44 -1 81 -3
84 -4 3 0 5 -106 6 -233 1 -278 6 -329 49 -538 15 -74 74 -236 113 -310 170
-324 415 -581 704 -739 82 -45 241 -106 328 -125 41 -9 89 -21 107 -27 18 -5
40 -12 50 -14 203 -43 223 -47 338 -59 130 -15 169 -17 295 -17 123 -1 235 5
300 16 14 3 45 7 70 10 100 14 381 94 404 116 6 5 18 9 28 9 10 0 18 5 18 10
0 6 7 10 16 10 17 0 157 79 162 92 2 4 10 8 18 8 8 0 14 3 14 8 0 4 16 16 35
26 19 11 35 23 35 28 0 4 5 8 11 8 10 0 125 89 192 150 79 70 199 194 258 265
66 80 169 229 169 245 0 4 7 13 15 20 9 7 13 15 11 18 -3 3 1 17 9 31 15 25
31 66 35 86 1 6 8 17 16 26 8 9 12 18 9 21 -3 3 -1 16 4 29 5 13 9 27 10 31 1
4 7 22 12 40 5 18 12 49 15 68 3 19 7 43 10 53 3 10 7 32 9 50 3 18 7 52 11
77 9 55 8 408 -1 471 l-7 46 104 -1 c103 0 138 6 138 22 0 19 -49 28 -147 26
l-102 -1 -7 31 c-4 17 -8 38 -9 46 -1 8 -8 35 -15 60 -7 25 -13 50 -15 55 -1
6 -7 22 -13 36 -6 15 -15 44 -21 65 -29 105 -131 286 -306 541 -15 22 -76 93
-112 131 -18 19 -33 36 -33 38 0 4 -96 94 -128 119 -14 11 -38 32 -54 48 -16
15 -31 27 -33 27 -3 0 -38 23 -79 50 -41 28 -119 71 -173 96 -54 25 -105 50
-114 54 -14 7 -66 23 -119 36 -8 2 -33 8 -55 14 -22 6 -46 12 -54 14 -19 4
-91 77 -91 93 0 7 -4 13 -8 13 -8 0 -31 60 -38 98 -1 8 -5 16 -8 19 -3 3 -1
14 5 24 6 13 6 19 0 19 -6 0 -9 6 -6 13 2 6 6 35 9 62 3 28 7 60 10 72 5 23
35 83 36 71 0 -11 119 110 178 181 60 72 122 172 128 208 3 14 7 30 10 34 2 5
-4 13 -15 18 -15 8 -27 4 -60 -19 -22 -17 -43 -30 -47 -30 -3 0 -20 -11 -38
-25 -18 -14 -37 -25 -43 -25 -5 0 -18 -8 -29 -18 -10 -10 -41 -31 -69 -46 -27
-16 -61 -38 -75 -48 -23 -18 -24 -18 -30 -1 -4 10 -6 38 -4 63 3 56 6 176 5
212 -1 21 -7 29 -26 34 -20 5 -40 -6 -102 -55 -43 -33 -109 -84 -146 -113 -37
-29 -80 -63 -94 -75 -31 -25 -32 -25 -114 47 -34 30 -90 76 -123 103 -34 26
-74 59 -91 72 -33 27 -42 29 -68 14z m609 -318 c4 -51 26 -93 64 -123 l31 -24
-17 -44 c-30 -84 -42 -172 -36 -257 3 -38 5 -78 6 -90 1 -13 4 -23 7 -23 4 0
10 -12 14 -27 11 -46 62 -127 110 -176 48 -50 107 -81 169 -91 48 -8 170 -49
233 -78 67 -31 187 -100 191 -110 2 -4 9 -8 15 -8 7 0 27 -14 46 -30 18 -17
37 -30 41 -30 17 0 256 -246 252 -259 -3 -8 0 -11 6 -7 7 4 9 -3 6 -21 -3 -16
-7 -46 -9 -68 -2 -22 -4 -41 -5 -42 -2 -2 -3 -11 -4 -20 -1 -10 -5 -40 -9 -68
-4 -27 -10 -75 -12 -105 -3 -30 -7 -66 -10 -80 -2 -14 -7 -50 -10 -80 -4 -30
-9 -68 -12 -85 -9 -63 -13 -92 -17 -137 -6 -63 -25 -128 -36 -128 -6 0 -10 5
-10 11 0 11 -52 35 -90 41 -36 4 -45 17 -64 80 -17 60 -26 71 -48 63 -15 -6
-48 -68 -48 -90 0 -7 -11 -22 -24 -32 -22 -18 -43 -19 -240 -19 -244 1 -225
-5 -251 86 -9 30 -19 62 -22 70 -3 8 -5 18 -5 23 1 4 -3 7 -10 7 -6 0 -9 3 -5
6 8 9 -18 34 -36 34 -8 0 -22 -9 -32 -20 -10 -11 -15 -20 -12 -20 3 0 0 -15
-8 -34 -8 -18 -16 -44 -19 -57 -2 -13 -11 -53 -20 -89 -14 -62 -24 -106 -26
-122 -1 -4 -6 -22 -11 -40 -5 -18 -12 -53 -15 -78 -3 -25 -9 -49 -13 -55 -5
-5 -7 -20 -6 -32 1 -13 -2 -23 -7 -23 -5 0 -7 -4 -4 -8 2 -4 1 -14 -4 -22 -13
-21 -24 12 -16 45 4 14 6 26 4 27 -1 2 4 12 10 24 9 17 6 25 -14 49 -13 15
-24 40 -25 54 0 14 -2 37 -5 51 -2 14 -6 52 -9 85 -2 33 -7 76 -9 95 -2 19 -7
67 -11 105 -3 39 -8 88 -11 110 -3 22 -7 60 -9 85 -5 63 -13 128 -19 175 -8
50 -15 114 -22 183 -7 80 -26 127 -48 127 -24 0 -35 -33 -51 -155 -3 -19 -7
-48 -9 -65 -2 -16 -7 -59 -11 -95 -3 -36 -9 -74 -12 -85 -5 -16 -8 -14 -15 15
-9 34 -20 146 -19 185 1 52 15 131 23 136 6 4 7 16 3 28 -4 15 -18 23 -46 27
-21 4 -39 12 -39 18 0 7 -15 20 -34 28 -27 13 -36 25 -46 65 -7 26 -14 73 -16
103 -2 30 -7 56 -11 57 -5 2 -8 34 -8 71 1 79 13 104 82 167 23 23 43 46 43
53 0 16 29 72 46 89 7 7 11 21 9 31 -25 132 -28 138 -66 182 -28 31 -38 51
-35 65 3 11 6 26 6 33 0 9 5 10 16 4 10 -6 25 -5 40 2 19 9 24 18 22 41 -3 25
1 31 20 33 26 4 133 60 143 74 3 5 4 38 2 73 l-3 64 76 61 c43 33 79 58 82 55
3 -2 6 -23 8 -44z m-396 -11 c3 -3 26 -23 53 -44 60 -49 64 -84 12 -112 -19
-10 -35 -24 -35 -30 0 -17 -99 -94 -121 -94 -10 0 -21 -9 -24 -20 -3 -11 -13
-26 -21 -34 -12 -13 -12 -20 1 -58 9 -24 21 -58 26 -76 6 -18 21 -39 35 -48
17 -12 24 -24 22 -44 -1 -15 3 -35 10 -43 13 -15 13 -67 0 -67 -4 0 -8 -7 -8
-16 0 -8 -22 -39 -49 -67 -61 -65 -89 -126 -85 -187 7 -106 13 -160 17 -167 3
-4 10 -41 17 -81 12 -66 17 -76 56 -112 24 -22 49 -40 55 -40 6 0 23 -9 39
-20 l27 -20 -14 -62 c-13 -54 -12 -73 1 -152 8 -50 14 -98 13 -106 -1 -9 -18
-40 -36 -70 -38 -62 -49 -119 -27 -152 12 -19 32 -122 27 -143 0 -3 13 -32 30
-64 38 -73 35 -91 -9 -54 -18 15 -42 28 -53 30 -10 2 -29 4 -41 6 -18 3 -27
16 -43 65 -34 104 -51 105 -96 6 -15 -35 -32 -65 -36 -66 -21 -3 -421 -6 -439
-2 -19 3 -27 17 -39 64 -6 24 -29 90 -38 110 -30 63 -66 68 -87 13 -7 -21 -13
-39 -12 -40 1 -2 -5 -20 -13 -42 -7 -22 -16 -56 -19 -76 -4 -21 -8 -40 -11
-44 -4 -7 -7 -20 -21 -88 -3 -16 -12 -59 -20 -98 -8 -38 -20 -94 -26 -122 -12
-60 -38 -73 -39 -20 0 17 -2 41 -4 52 -3 11 -7 49 -10 85 -2 36 -7 79 -9 95
-3 17 -8 59 -11 95 -4 36 -9 83 -12 105 -2 22 -6 60 -8 85 -16 186 -24 268
-30 305 -7 47 -14 103 -29 250 -2 17 -9 49 -16 73 -22 72 -61 41 -74 -58 -3
-25 -9 -58 -12 -75 -3 -16 -7 -48 -9 -70 -1 -22 -5 -51 -9 -65 -3 -14 -8 -52
-11 -85 -11 -123 -13 -141 -18 -170 -3 -16 -8 -59 -12 -95 -6 -64 -8 -77 -20
-155 -14 -93 -22 -103 -53 -65 -15 17 -51 30 -92 32 -8 1 -18 6 -23 12 -10 15
-41 119 -39 129 1 5 -8 7 -20 5 -15 -2 -29 -16 -40 -38 l-18 -35 2 35 c1 19 4
39 7 45 3 5 6 18 8 30 3 25 11 60 13 60 1 0 3 8 5 17 6 34 38 123 48 136 5 6
7 12 3 12 -13 0 109 272 125 278 5 2 7 7 5 11 -5 8 101 168 154 232 19 23 53
59 74 78 22 20 47 43 56 51 25 23 140 100 149 100 5 0 11 3 13 8 2 4 30 20 63
36 33 15 71 34 85 41 58 29 243 80 325 88 17 2 36 7 43 11 7 4 16 5 21 2 14
-9 103 39 139 75 31 30 90 129 77 129 -3 0 0 10 6 22 15 27 19 187 8 260 -5
29 -16 67 -26 85 -19 36 -18 40 19 47 35 6 58 19 86 49 25 27 33 52 37 117 1
25 3 49 4 54 1 7 30 -12 51 -34z m-1165 -1526 c9 -77 14 -134 20 -199 11 -130
16 -181 20 -195 2 -8 7 -49 10 -90 14 -192 27 -322 39 -399 3 -14 8 -51 11
-81 22 -189 77 -214 110 -50 2 8 4 15 5 15 1 0 3 7 5 15 1 8 17 78 34 155 17
77 33 156 37 175 7 40 7 42 21 95 6 22 14 53 17 68 6 26 30 34 32 11 0 -5 10
-41 22 -81 34 -110 30 -108 306 -108 l228 0 27 31 c14 17 31 39 37 50 11 17
13 15 29 -23 15 -37 48 -61 77 -55 24 5 60 -23 79 -60 36 -71 60 -72 79 -3 11
39 15 43 37 39 50 -9 81 -33 99 -78 10 -24 31 -52 46 -62 15 -10 31 -27 36
-39 16 -35 7 -146 -18 -212 -17 -48 -21 -71 -15 -100 5 -21 9 -44 11 -52 1 -8
7 -17 12 -20 8 -6 17 -24 22 -46 1 -5 5 -14 10 -20 9 -11 28 -75 37 -120 3
-16 8 -32 11 -35 4 -3 7 -12 7 -20 0 -8 9 -16 20 -19 11 -2 22 -6 25 -10 3 -4
20 -17 38 -30 l33 -23 -5 -74 c-2 -45 0 -74 6 -74 5 0 34 -11 64 -25 63 -29
124 -87 126 -121 1 -13 6 -24 11 -24 4 0 6 11 4 24 -5 39 -71 103 -136 132
-56 25 -59 28 -55 58 12 94 12 110 -2 123 -8 8 -14 12 -14 8 0 -3 -20 8 -44
24 -47 32 -65 68 -70 138 -3 40 -15 75 -27 83 -4 3 -18 38 -32 79 -22 68 -23
77 -11 108 16 37 29 42 37 14 11 -42 60 -3 72 57 1 9 8 37 15 62 7 25 14 52
15 60 2 8 4 15 5 15 1 0 3 9 4 20 6 39 77 360 87 393 9 27 13 31 25 21 8 -6
14 -17 14 -23 0 -31 33 -118 54 -143 l23 -27 228 -1 c222 0 228 0 261 23 19
13 32 27 29 33 -4 5 -1 9 4 9 6 0 11 7 11 15 0 25 27 5 34 -25 6 -31 31 -49
80 -57 41 -6 68 -22 61 -34 -4 -5 -2 -9 3 -9 4 0 14 -15 22 -34 17 -45 45 -44
64 4 15 39 25 88 40 205 4 28 9 61 11 75 2 14 6 54 10 90 4 36 8 76 10 90 2
14 7 56 10 94 3 38 7 72 10 75 2 4 7 35 10 69 3 34 9 72 14 85 8 21 9 21 15
-8 6 -29 14 -96 21 -185 2 -25 6 -61 9 -80 2 -19 7 -73 11 -120 3 -47 8 -98
10 -115 3 -16 7 -57 10 -90 3 -33 7 -78 10 -100 3 -22 7 -65 9 -95 3 -30 7
-71 10 -90 3 -19 10 -71 16 -115 14 -107 28 -155 47 -162 27 -10 58 53 69 140
2 16 7 34 11 40 4 6 8 18 9 27 2 14 6 35 19 110 3 19 9 46 14 60 5 14 15 53
22 88 13 62 29 77 35 32 1 -14 5 -38 8 -55 19 -103 25 -318 13 -460 -10 -128
-61 -355 -79 -355 -5 0 -7 -4 -3 -9 7 -12 -98 -220 -126 -250 -11 -11 -16 -21
-12 -21 4 0 -1 -7 -12 -16 -11 -8 -20 -18 -20 -22 0 -14 -80 -107 -170 -197
-87 -88 -123 -121 -215 -195 -23 -19 -49 -41 -56 -47 -7 -7 -17 -13 -23 -13
-6 0 -11 -4 -11 -10 0 -5 -6 -10 -14 -10 -8 0 -16 -4 -18 -9 -9 -24 -204 -134
-323 -182 -79 -32 -234 -73 -316 -83 -19 -3 -34 -5 -34 -6 0 -6 -205 -21 -280
-21 -99 0 -340 14 -340 21 0 0 -21 3 -46 5 -48 4 -61 7 -139 24 -68 14 -88 19
-180 42 -47 11 -92 22 -100 24 -79 16 -329 129 -369 167 -12 10 -21 15 -21 11
0 -4 -4 -3 -8 2 -4 6 -23 22 -42 35 -86 60 -266 242 -320 322 -14 21 -29 38
-33 38 -5 0 -6 4 -3 9 3 5 -1 11 -9 15 -8 3 -15 10 -15 15 0 6 -13 30 -30 54
-16 25 -30 49 -30 55 0 6 -4 12 -8 14 -14 5 -83 156 -98 213 -2 6 -10 37 -20
70 -18 68 -22 85 -30 135 -7 46 -12 70 -19 100 -12 45 -14 403 -4 475 8 57 16
76 42 103 17 17 27 32 23 32 -5 0 -3 7 4 15 19 22 28 18 35 -15 8 -35 36 -56
83 -63 41 -7 61 -23 79 -64 7 -18 22 -37 33 -43 16 -9 22 -6 33 17 23 45 38
119 51 258 2 28 8 66 11 85 4 19 8 55 10 80 2 25 4 45 5 45 1 0 3 20 6 45 10
99 13 125 14 125 1 0 3 22 5 48 6 74 21 135 30 125 2 -2 7 -26 10 -54z m1380
-24 c7 -79 15 -153 20 -200 2 -19 7 -62 10 -95 2 -33 7 -80 10 -105 2 -25 7
-79 10 -120 3 -41 7 -86 10 -100 3 -13 7 -52 10 -85 5 -55 4 -58 -10 -41 -8
11 -15 26 -15 33 0 7 -4 13 -9 13 -5 0 -11 9 -14 19 -3 12 -28 30 -63 46 -57
26 -77 42 -69 55 2 4 7 29 10 56 7 64 12 100 19 150 4 23 8 59 11 80 2 21 6
59 9 84 3 25 9 72 12 105 8 79 12 109 14 115 4 10 7 25 8 50 3 45 21 6 27 -60z
m1499 -73 c55 -94 96 -183 131 -280 22 -63 26 -90 22 -133 -3 -29 -9 -59 -13
-66 -4 -7 -9 -23 -10 -36 -2 -14 -6 -32 -10 -41 -4 -9 -8 -25 -9 -36 -2 -11
-6 -31 -9 -45 -4 -14 -9 -41 -12 -60 -3 -19 -8 -38 -10 -41 -2 -3 -6 -21 -9
-40 -4 -19 -8 -38 -9 -44 -2 -5 -6 -27 -11 -48 -4 -21 -11 -35 -16 -30 -8 8
-11 25 -24 136 -3 23 -7 58 -10 77 -2 19 -7 64 -10 100 -3 36 -7 75 -9 88 -3
12 -8 57 -11 100 -3 42 -8 93 -10 112 -7 65 -17 165 -20 200 -2 19 -4 35 -5
35 -1 0 -3 25 -6 55 -2 30 -6 68 -8 84 l-5 28 20 -21 c11 -12 39 -54 63 -94z
m-1609 -149 c-2 -24 -7 -65 -11 -93 -3 -27 -7 -61 -8 -75 -11 -104 -19 -142
-28 -126 -5 9 -7 20 -3 25 3 5 1 13 -5 16 -6 4 -10 27 -9 53 1 26 -1 70 -5 97
-7 47 -6 53 29 98 20 26 38 47 41 47 2 0 2 -19 -1 -42z"/>
<path d="M3037 1133 c-3 -5 -1 -17 4 -28 7 -17 8 -17 8 8 1 27 -4 34 -12 20z"/>
<path d="M3046 1067 c3 -10 9 -15 12 -12 3 3 0 11 -7 18 -10 9 -11 8 -5 -6z"/>
</g>
</svg>
